<svg width="457" height="449.00000000000006" xmlns="http://www.w3.org/2000/svg">
 <defs>
  <filter id="imagebot_6">
   <feGaussianBlur id="imagebot_8" stdDeviation="6.98194"/>
  </filter>
 </defs>
 <g id="imagebot_1" label="Calque 1">
  <rect label="Calque 1" id="imagebot_7" height="304" width="430" y="841.29" x="1252.5" fill="#ffffff" fill-rule="evenodd" transform="translate(-22.6955 31.1433) matrix(1 0 0 1 -1225.06 -793.496)"/>
  <path transform="matrix(2.23884 -0.43369 -0.0781017 2.26491 -1905.65 1024.32)" label="Calque 1" id="imagebot_5" d="M 885.15 -244.16 C 894.67 -245.91 907.79 -240.37 914.44 -231.79 C 916.94 -228.55 918.18 -225.33 918.23 -222.49 L 956.73 -229.61 C 959.33 -230.09 962.91 -228.58 964.72 -226.23 L 991.43 -191.76 C 987.58 -192.79 983.74 -193.11 980.35 -192.49 C 970.84 -190.73 968.51 -182.33 975.16 -173.75 C 981.81 -165.16 994.93 -159.62 1004.4 -161.38 C 1007.8 -162.01 1010.3 -163.49 1011.8 -165.51 L 1038.5 -131.03 C 1040.3 -128.69 1039.6 -126.4 1037 -125.92 L 999.51 -118.98 C 1002.5 -117.05 1005.1 -114.72 1007.1 -112.09 C 1013.8 -103.51 1011.5 -95.113 1002 -93.354 C 992.44 -91.595 979.32 -97.135 972.67 -105.72 C 970.64 -108.34 969.46 -110.95 969.06 -113.35 L 931.53 -106.41 C 928.93 -105.93 925.35 -107.44 923.53 -109.79 L 896.83 -144.26 C 900.68 -143.23 904.52 -142.91 907.91 -143.53 C 917.42 -145.29 919.75 -153.69 913.1 -162.27 C 906.45 -170.86 893.33 -176.4 883.81 -174.64 C 880.43 -174.01 877.99 -172.53 876.5 -170.51 L 849.8 -204.99 C 847.98 -207.33 848.62 -209.62 851.22 -210.1 L 889.72 -217.22 C 885.91 -219.36 882.47 -222.18 879.96 -225.42 C 873.31 -234 875.64 -242.4 885.15 -244.16 Z" fill="#666666" fill-rule="evenodd" filter="url(#imagebot_6)"/>
  <path transform="matrix(2.23884 -0.43369 -0.0781017 2.26491 -1905.65 1024.32)" label="Calque 1" id="imagebot_4" d="M 891.15 -250.16 C 900.67 -251.91 913.79 -246.37 920.44 -237.79 C 922.94 -234.55 924.18 -231.33 924.23 -228.49 L 962.73 -235.61 C 965.33 -236.09 968.91 -234.58 970.72 -232.23 L 997.43 -197.76 C 993.58 -198.79 989.74 -199.11 986.35 -198.49 C 976.84 -196.73 974.51 -188.33 981.16 -179.75 C 987.81 -171.16 1000.9 -165.62 1010.4 -167.38 C 1013.8 -168.01 1016.3 -169.49 1017.8 -171.51 L 1044.5 -137.03 C 1046.3 -134.69 1045.6 -132.4 1043 -131.92 L 1005.5 -124.98 C 1008.5 -123.05 1011.1 -120.72 1013.1 -118.09 C 1019.8 -109.51 1017.5 -101.11 1008 -99.354 C 998.44 -97.595 985.32 -103.13 978.67 -111.72 C 976.64 -114.34 975.46 -116.95 975.06 -119.35 L 937.53 -112.41 C 934.93 -111.93 931.35 -113.44 929.53 -115.79 L 902.83 -150.26 C 906.68 -149.23 910.52 -148.91 913.91 -149.53 C 923.42 -151.29 925.75 -159.69 919.1 -168.27 C 912.45 -176.86 899.33 -182.4 889.81 -180.64 C 886.43 -180.01 883.99 -178.53 882.5 -176.51 L 855.8 -210.99 C 853.98 -213.33 854.62 -215.62 857.22 -216.1 L 895.72 -223.22 C 891.91 -225.36 888.47 -228.18 885.96 -231.42 C 879.31 -240 881.64 -248.4 891.15 -250.16 Z" fill="#8ae234" fill-rule="evenodd"/>
  <title label="Calque 1"/>
 </g>
</svg>